<?xml version="1.0" encoding="UTF-8"?>
<svg id="Layer_1" xmlns="http://www.w3.org/2000/svg" version="1.1" viewBox="0 0 500 500">
  <!-- Generator: Adobe Illustrator 30.2.1, SVG Export Plug-In . SVG Version: 2.1.1 Build 1)  -->
  <path d="M209.06,432.6H13.54v25.3h209.87c-5.47-7.97-10.28-16.43-14.35-25.3Z"/>
  <g>
    <polygon points="13.54 236.41 13.54 236.41 13.54 236.38 13.54 236.41"/>
    <path d="M235.87,249.16v-91.51h62.01v46.71c8.13-3.43,16.58-6.24,25.29-8.38v-38.31h62.41v34.69c8.65,1.09,17.09,2.82,25.29,5.15v-39.82l-47.73-47.73h-172.97l41.61-28.15c7.75-4.89,7.75-15.91,0-20.8L159.58,12.04c-2.04-1.63-4.49-2.04-6.93-2.04s-4.89.41-7.35,2.04l-72.62,48.95c-7.35,4.89-7.35,15.91,0,20.8l42.01,28.15H13.54v47.73h23.66v78.74H13.54l.41,119.1c8.16-14.68,25.29-23.66,46.5-23.66h91.79c16.47,0,31.29,6.9,41.76,17.89,2.63-38.41,17.97-73.33,41.86-100.57ZM102.47,71.58l49.77-33.86,50.18,33.86-50.18,33.45-49.77-33.45ZM62.49,236.38v-78.74h147.67v78.74H62.49Z"/>
  </g>
  <path d="M427.82,350.2l4.19-23.61h47.13l5.32-29.64h-47.13l12.54-71.06h-32.31l-12.54,71.06h-61.18l12.54-71.06h-31.93l-1.3,7.37h0l-11.24,63.69h-47.13l-5.32,29.64h47.13l-11.4,64.22h-47.13l-.91,5.08h0l-4.41,24.57h47.13l-2.13,12.15h0l-.51,2.87-9.91,56.42h31.93l5.97-34h0l2.16-12.32,4.4-25.12h61.18l-2.13,12.15h0l-4.44,25.29h0l-5.97,34h32.3l5.97-34h0l3.38-19.24h0l3.2-18.2h47.13l5.32-29.64h-47.13l7.21-40.62h.01ZM385.59,326.58h14.13l-11.4,64.22h-61.18l11.4-64.22h47.05,0Z"/>
  <path d="M27.41,388.95c0,18.36,14.68,33.05,33.05,33.05s33.05-14.68,33.05-33.05-14.68-33.04-33.05-33.04-33.05,15.1-33.05,33.04Z"/>
  <path d="M119.2,388.95c0,18.36,14.68,33.05,33.05,33.05s33.04-14.68,33.04-33.05-14.68-33.04-33.04-33.04-33.05,15.1-33.05,33.04Z"/>
</svg>