<?xml version="1.0" encoding="UTF-8"?>
<svg id="Layer_1" xmlns="http://www.w3.org/2000/svg" version="1.1" viewBox="0 0 500 500">
  <!-- Generator: Adobe Illustrator 30.2.1, SVG Export Plug-In . SVG Version: 2.1.1 Build 1)  -->
  <path d="M424.43,346.71l3.96-22.3h44.52l5.03-28h-44.52l11.85-67.13h-30.52l-11.85,67.13h-57.8l11.85-67.13h-30.16l-1.23,6.96h0l-10.62,60.17h-44.52l-5.03,28h44.52l-10.77,60.67h-44.52l-.86,4.8h0l-4.17,23.21h44.52l-2.01,11.48h0l-.48,2.71-9.36,53.3h30.16l5.64-32.12h0l2.04-11.64,4.16-23.73h57.8l-2.01,11.48h0l-4.19,23.89h0l-5.64,32.12h30.51l5.64-32.12h0l3.19-18.18h0l3.02-17.19h44.52l5.03-28h-44.52l6.81-38.37h0ZM384.53,324.4h13.35l-10.77,60.67h-57.8l10.77-60.67h44.45Z"/>
  <polygon points="382.26 347.09 347.64 347.09 342.93 373.66 377.54 373.66 382.26 347.09"/>
  <polygon points="329.66 448.45 364.28 448.45 368.48 424.55 333.85 424.55 329.66 448.45"/>
  <path d="M46.17,383.32c0,17.34,13.87,31.22,31.22,31.22s31.22-13.87,31.22-31.22-13.87-31.21-31.22-31.21-31.22,14.26-31.22,31.21Z"/>
  <polygon points="33.07 448.45 276.33 448.45 280.52 424.55 33.07 424.55 33.07 448.45"/>
  <path d="M132.88,383.32c0,17.34,13.87,31.22,31.22,31.22s31.21-13.87,31.21-31.22-13.87-31.21-31.21-31.21-31.22,14.26-31.22,31.21Z"/>
  <path d="M33.07,239.19l.39,112.53c7.71-13.87,23.89-22.35,43.93-22.35h86.71c30.06,0,54.34,24.28,54.34,53.95,0,2.31,0,4.62-.39,6.55h24.13l1.22-6.81,1.69-9.4h44.5l4.72-26.57h-51.21v-182.28h58.58v120.18h3.7l10.18-57.7,1.66-9.43h8.35v-53.04h58.96v120.18h8.8l10.18-57.7,1.66-9.43h3.25v-53.04l-45.09-45.09h-163.4l39.31-26.59c7.32-4.62,7.32-15.03,0-19.65l-68.21-46.24c-1.93-1.54-4.24-1.93-6.55-1.93s-4.62.39-6.94,1.93l-68.6,46.24c-6.94,4.62-6.94,15.03,0,19.65l39.69,26.59H33.07v45.09h22.35v74.38h-22.35ZM117.08,83.5l47.02-31.99,47.4,31.99-47.4,31.6-47.02-31.6ZM79.31,164.81h139.5v74.38H79.31v-74.38Z"/>
</svg>